<svg width="732" height="602" viewBox="0 0 732 602" fill="none" xmlns="http://www.w3.org/2000/svg">
<path d="M388.894 140H135.894C129.796 139.993 123.95 137.568 119.638 133.256C115.326 128.944 112.901 123.098 112.894 117V23C112.901 16.9021 115.326 11.056 119.638 6.7442C123.95 2.43237 129.796 0.00693441 135.894 0H388.894C394.991 0.00693176 400.838 2.43237 405.149 6.7442C409.461 11.056 411.887 16.9021 411.894 23V117C411.887 123.098 409.461 128.944 405.15 133.256C400.838 137.568 394.992 139.993 388.894 140Z" fill="white"/>
<path d="M388.894 140H135.894C129.796 139.993 123.95 137.568 119.638 133.256C115.326 128.944 112.901 123.098 112.894 117V23C112.901 16.9021 115.326 11.056 119.638 6.7442C123.95 2.43237 129.796 0.00693441 135.894 0H388.894C394.991 0.00693176 400.838 2.43237 405.149 6.7442C409.461 11.056 411.887 16.9021 411.894 23V117C411.887 123.098 409.461 128.944 405.15 133.256C400.838 137.568 394.992 139.993 388.894 140ZM135.894 2C130.326 2.00624 124.988 4.22074 121.051 8.15765C117.114 12.0946 114.9 17.4324 114.894 23V117C114.9 122.568 117.115 127.905 121.051 131.842C124.988 135.779 130.326 137.994 135.894 138H388.894C394.461 137.994 399.799 135.779 403.736 131.842C407.673 127.905 409.887 122.568 409.894 117V23C409.887 17.4324 407.673 12.0946 403.736 8.15765C399.799 4.22074 394.461 2.00624 388.894 2H135.894Z" fill="#3F3D56"/>
<path d="M484.627 152.793H350.057C349.208 152.783 348.363 152.676 347.538 152.474C345.076 151.882 342.886 150.477 341.321 148.486C339.757 146.495 338.91 144.035 338.917 141.503V95.7626C338.922 92.7706 340.113 89.9028 342.23 87.7881C344.346 85.6735 347.215 84.4848 350.207 84.4828H484.627C486.439 84.478 488.225 84.9151 489.83 85.7562C490.469 86.0876 491.073 86.482 491.634 86.9334C492.973 87.9817 494.055 89.3221 494.798 90.8522C495.54 92.3824 495.923 94.0619 495.917 95.7626V141.503C495.914 144.496 494.723 147.366 492.607 149.482C490.49 151.599 487.621 152.79 484.627 152.793Z" fill="white"/>
<path d="M475.607 151.793C481.717 136.943 488.154 122.239 494.917 107.683V132.363C490.306 139.379 484.97 145.891 478.997 151.793H475.607Z" fill="#E6E6E6"/>
<path d="M491.007 87.7128C478.917 109.403 466.267 130.763 453.057 151.793H450.757C464.187 130.433 477.057 108.716 489.367 86.6428C489.948 86.944 490.498 87.3024 491.007 87.7128Z" fill="#E6E6E6"/>
<path d="M402.287 111.393C394.387 125.362 385.668 138.852 376.177 151.793H362.467C371.447 140.853 380.434 129.913 389.427 118.973C392.007 115.823 394.807 112.523 398.677 111.243L402.287 111.393Z" fill="#E6E6E6"/>
<path d="M384.067 109.153C382.637 110.643 381.267 112.193 379.977 113.803C377.137 117.223 374.337 120.673 371.527 124.113C369.777 126.253 368.027 128.393 366.297 130.533C365.748 130.18 365.227 129.785 364.737 129.353C361.974 126.954 360.261 123.569 359.963 119.923C359.666 116.276 360.809 112.658 363.147 109.844C365.485 107.029 368.833 105.243 372.472 104.867C376.112 104.491 379.753 105.556 382.617 107.833C383.134 108.235 383.618 108.677 384.067 109.153V109.153Z" fill="#009F70"/>
<path d="M461.397 118.873L435.117 109.263L422.067 104.493C417.817 102.943 413.577 101.173 409.187 100.053C405.37 98.9617 401.316 99.0138 397.527 100.203C394.149 101.453 391.058 103.371 388.437 105.843C387.277 106.913 386.154 108.016 385.067 109.153C383.637 110.643 382.267 112.193 380.977 113.803C378.137 117.223 375.337 120.673 372.527 124.113C370.777 126.253 369.027 128.393 367.297 130.533C361.517 137.603 355.771 144.689 350.057 151.793C349.289 151.784 348.524 151.687 347.777 151.503C353.737 144.103 359.724 136.719 365.737 129.353C366.427 128.493 367.137 127.623 367.837 126.763C370.767 123.173 373.701 119.586 376.637 116.003C378.907 113.233 381.157 110.443 383.617 107.833C383.837 107.593 384.057 107.363 384.287 107.123C389.277 101.963 395.507 97.4028 402.967 97.2828C407.357 97.2128 411.597 98.6028 415.677 100.073C420.067 101.663 424.447 103.283 428.837 104.893L455.297 114.573L461.917 116.993C463.087 117.413 462.587 119.313 461.397 118.873Z" fill="#E6E6E6"/>
<path d="M484.627 152.793H350.057C349.208 152.783 348.363 152.676 347.538 152.474C345.076 151.882 342.886 150.477 341.321 148.486C339.757 146.495 338.91 144.035 338.917 141.503V95.7626C338.922 92.7706 340.113 89.9028 342.23 87.7881C344.346 85.6735 347.215 84.4848 350.207 84.4828H484.627C486.439 84.478 488.225 84.9151 489.83 85.7562C490.469 86.0876 491.073 86.482 491.634 86.9334C492.973 87.9817 494.055 89.3221 494.798 90.8522C495.54 92.3824 495.923 94.0619 495.917 95.7626V141.503C495.914 144.496 494.723 147.366 492.607 149.482C490.49 151.599 487.621 152.79 484.627 152.793ZM350.207 86.4828C347.746 86.4842 345.385 87.4621 343.644 89.2018C341.902 90.9414 340.922 93.3009 340.917 95.7626V141.503C340.911 143.587 341.608 145.611 342.896 147.25C344.183 148.888 345.986 150.044 348.012 150.531C348.686 150.696 349.376 150.784 350.07 150.793H484.627C487.09 150.79 489.452 149.81 491.193 148.069C492.935 146.327 493.914 143.966 493.917 141.503V95.7626C493.922 94.3631 493.606 92.9811 492.994 91.7222C492.383 90.4633 491.492 89.3608 490.389 88.4989C489.929 88.1277 489.433 87.8035 488.908 87.5311C487.588 86.8387 486.118 86.4789 484.627 86.4828H350.207Z" fill="#3F3D56"/>
<path d="M217 196.488H23C16.9021 196.481 11.056 194.056 6.74411 189.744C2.43226 185.432 0.00684988 179.586 0 173.488V139.488C0.00693176 133.39 2.43237 127.544 6.7442 123.232C11.056 118.921 16.9021 116.495 23 116.488H217C223.098 116.495 228.944 118.921 233.256 123.232C237.568 127.544 239.993 133.39 240 139.488V173.488C239.993 179.586 237.568 185.432 233.256 189.744C228.944 194.056 223.098 196.481 217 196.488V196.488Z" fill="white"/>
<path d="M217 196.488H23C16.9021 196.481 11.056 194.056 6.74411 189.744C2.43226 185.432 0.00684988 179.586 0 173.488V139.488C0.00693176 133.39 2.43237 127.544 6.7442 123.232C11.056 118.921 16.9021 116.495 23 116.488H217C223.098 116.495 228.944 118.921 233.256 123.232C237.568 127.544 239.993 133.39 240 139.488V173.488C239.993 179.586 237.568 185.432 233.256 189.744C228.944 194.056 223.098 196.481 217 196.488V196.488ZM23 118.488C17.4324 118.494 12.0946 120.709 8.15765 124.646C4.22074 128.583 2.00624 133.921 2 139.488V173.488C2.00633 179.056 4.22085 184.394 8.15775 188.33C12.0946 192.267 17.4324 194.482 23 194.488H217C222.568 194.482 227.905 192.267 231.842 188.33C235.779 184.394 237.994 179.056 238 173.488V139.488C237.994 133.921 235.779 128.583 231.842 124.646C227.905 120.709 222.568 118.494 217 118.488H23Z" fill="#3F3D56"/>
<path d="M79.963 177.364H48.7747C47.1076 177.362 45.5093 176.699 44.3304 175.52C43.1516 174.342 42.4885 172.743 42.4867 171.076V141.9C42.4885 140.233 43.1516 138.635 44.3304 137.456C45.5093 136.277 47.1076 135.614 48.7747 135.612H79.963C81.6301 135.614 83.2284 136.277 84.4072 137.456C85.5861 138.635 86.2492 140.233 86.251 141.9V171.076C86.2491 172.743 85.5861 174.342 84.4072 175.521C83.2284 176.699 81.6301 177.362 79.963 177.364Z" fill="#009F70"/>
<path d="M135.594 177.364H104.406C102.739 177.362 101.14 176.699 99.9617 175.52C98.7828 174.342 98.1198 172.743 98.1179 171.076V141.9C98.1198 140.233 98.7828 138.635 99.9617 137.456C101.14 136.277 102.739 135.614 104.406 135.612H135.594C137.261 135.614 138.86 136.277 140.038 137.456C141.217 138.635 141.88 140.233 141.882 141.9V171.076C141.88 172.743 141.217 174.342 140.038 175.521C138.86 176.699 137.261 177.362 135.594 177.364V177.364Z" fill="#E6E6E6"/>
<path d="M191.225 177.364H160.037C158.37 177.362 156.772 176.699 155.593 175.52C154.414 174.342 153.751 172.743 153.749 171.076V141.9C153.751 140.233 154.414 138.635 155.593 137.456C156.772 136.277 158.37 135.614 160.037 135.612H191.225C192.892 135.614 194.491 136.277 195.67 137.456C196.848 138.635 197.511 140.233 197.513 141.9V171.076C197.511 172.743 196.848 174.342 195.67 175.521C194.491 176.699 192.892 177.362 191.225 177.364V177.364Z" fill="#E6E6E6"/>
<path d="M274.728 55.4882H234.728C233.667 55.4882 232.65 55.0668 231.9 54.3166C231.15 53.5665 230.728 52.5491 230.728 51.4882C230.728 50.4273 231.15 49.4099 231.9 48.6598C232.65 47.9096 233.667 47.4882 234.728 47.4882H274.728C275.789 47.4882 276.807 47.9096 277.557 48.6598C278.307 49.4099 278.728 50.4273 278.728 51.4882C278.728 52.5491 278.307 53.5665 277.557 54.3166C276.807 55.0668 275.789 55.4882 274.728 55.4882Z" fill="#CCCCCC"/>
<path d="M360.728 77.4882H233.728C232.667 77.4882 231.65 77.0668 230.9 76.3166C230.15 75.5665 229.728 74.5491 229.728 73.4882C229.728 72.4273 230.15 71.4099 230.9 70.6598C231.65 69.9096 232.667 69.4882 233.728 69.4882H360.728C361.789 69.4882 362.807 69.9096 363.557 70.6598C364.307 71.4099 364.728 72.4273 364.728 73.4882C364.728 74.5491 364.307 75.5665 363.557 76.3166C362.807 77.0668 361.789 77.4882 360.728 77.4882Z" fill="#CCCCCC"/>
<path d="M187.224 89.3071C202.036 89.3071 214.043 77.2999 214.043 62.4882C214.043 47.6765 202.036 35.6693 187.224 35.6693C172.413 35.6693 160.406 47.6765 160.406 62.4882C160.406 77.2999 172.413 89.3071 187.224 89.3071Z" fill="#009F70"/>
<path d="M479 313.488H226C219.902 313.481 214.056 311.056 209.744 306.744C205.432 302.432 203.007 296.586 203 290.488V196.488C203.007 190.39 205.432 184.544 209.744 180.232C214.056 175.921 219.902 173.495 226 173.488H479C485.098 173.495 490.944 175.921 495.256 180.232C499.568 184.544 501.993 190.39 502 196.488V290.488C501.993 296.586 499.568 302.432 495.256 306.744C490.944 311.056 485.098 313.481 479 313.488V313.488Z" fill="white"/>
<path d="M479 313.488H226C219.902 313.481 214.056 311.056 209.744 306.744C205.432 302.432 203.007 296.586 203 290.488V196.488C203.007 190.39 205.432 184.544 209.744 180.232C214.056 175.921 219.902 173.495 226 173.488H479C485.098 173.495 490.944 175.921 495.256 180.232C499.568 184.544 501.993 190.39 502 196.488V290.488C501.993 296.586 499.568 302.432 495.256 306.744C490.944 311.056 485.098 313.481 479 313.488V313.488ZM226 175.488C220.432 175.494 215.095 177.709 211.158 181.646C207.221 185.583 205.006 190.921 205 196.488V290.488C205.006 296.056 207.221 301.394 211.158 305.33C215.095 309.267 220.432 311.482 226 311.488H479C484.568 311.482 489.905 309.267 493.842 305.33C497.779 301.394 499.994 296.056 500 290.488V196.488C499.994 190.921 497.779 185.583 493.842 181.646C489.905 177.709 484.568 175.494 479 175.488H226Z" fill="#3F3D56"/>
<path d="M324.539 210.732H282.042C281.508 210.733 280.98 210.628 280.487 210.425C279.994 210.221 279.546 209.922 279.168 209.545C278.791 209.168 278.491 208.721 278.287 208.228C278.083 207.735 277.977 207.207 277.977 206.673C277.977 206.14 278.083 205.612 278.287 205.119C278.491 204.626 278.791 204.179 279.168 203.802C279.546 203.425 279.994 203.126 280.487 202.922C280.98 202.719 281.508 202.614 282.042 202.615H324.539C325.614 202.617 326.644 203.045 327.404 203.806C328.164 204.567 328.59 205.598 328.59 206.673C328.59 207.749 328.164 208.78 327.404 209.541C326.644 210.302 325.614 210.73 324.539 210.732V210.732Z" fill="#009F70"/>
<path d="M419.802 227.33H282.042C280.966 227.33 279.933 226.903 279.172 226.141C278.411 225.38 277.984 224.348 277.984 223.272C277.984 222.196 278.411 221.163 279.172 220.402C279.933 219.641 280.966 219.214 282.042 219.214H419.802C420.878 219.214 421.911 219.641 422.672 220.402C423.433 221.163 423.86 222.196 423.86 223.272C423.86 224.348 423.433 225.38 422.672 226.141C421.911 226.903 420.878 227.33 419.802 227.33V227.33Z" fill="#E6E6E6"/>
<path d="M419.802 246.383H282.042C281.509 246.383 280.981 246.278 280.489 246.074C279.997 245.87 279.549 245.571 279.172 245.194C278.796 244.817 278.497 244.37 278.293 243.878C278.089 243.385 277.984 242.857 277.984 242.325C277.984 241.792 278.089 241.264 278.293 240.772C278.497 240.279 278.796 239.832 279.172 239.455C279.549 239.078 279.997 238.779 280.489 238.575C280.981 238.371 281.509 238.266 282.042 238.266H419.802C420.878 238.266 421.911 238.694 422.672 239.455C423.433 240.216 423.86 241.248 423.86 242.325C423.86 243.401 423.433 244.433 422.672 245.194C421.911 245.955 420.878 246.383 419.802 246.383Z" fill="#E6E6E6"/>
<path d="M419.802 265.435H282.042C281.508 265.436 280.98 265.332 280.487 265.128C279.994 264.925 279.546 264.626 279.168 264.249C278.791 263.872 278.491 263.425 278.287 262.932C278.083 262.439 277.977 261.911 277.977 261.377C277.977 260.844 278.083 260.316 278.287 259.823C278.491 259.33 278.791 258.882 279.168 258.505C279.546 258.128 279.994 257.83 280.487 257.626C280.98 257.423 281.508 257.318 282.042 257.319H419.802C420.877 257.321 421.908 257.749 422.667 258.51C423.427 259.271 423.854 260.302 423.854 261.377C423.854 262.452 423.427 263.484 422.667 264.245C421.908 265.005 420.877 265.434 419.802 265.435V265.435Z" fill="#E6E6E6"/>
<path d="M419.802 284.488H282.042C280.966 284.488 279.933 284.061 279.172 283.3C278.411 282.538 277.984 281.506 277.984 280.43C277.984 279.354 278.411 278.321 279.172 277.56C279.933 276.799 280.966 276.372 282.042 276.372H419.802C420.878 276.372 421.911 276.799 422.672 277.56C423.433 278.321 423.86 279.354 423.86 280.43C423.86 281.506 423.433 282.538 422.672 283.3C421.911 284.061 420.878 284.488 419.802 284.488V284.488Z" fill="#E6E6E6"/>
<path d="M598.507 584.918L584.621 584.917L578.014 531.353L598.51 531.354L598.507 584.918Z" fill="#FFB6B6"/>
<path d="M598.996 599.404L556.293 599.402V598.862C556.293 594.454 558.044 590.227 561.161 587.11C564.278 583.993 568.506 582.242 572.914 582.241H572.915L580.715 576.324L595.269 582.242L598.997 582.242L598.996 599.404Z" fill="#2F2E41"/>
<path d="M695.84 559.374L684.481 567.36L648.267 527.345L665.033 515.556L695.84 559.374Z" fill="#FFB6B6"/>
<path d="M704.573 570.942L669.641 595.504L669.33 595.062C666.795 591.456 665.796 586.991 666.553 582.648C667.309 578.306 669.76 574.441 673.366 571.906L673.367 571.905L676.344 562.577L691.653 559.048L694.703 556.904L704.573 570.942Z" fill="#2F2E41"/>
<path d="M653.835 318.441L654.989 320.906C662.573 337.109 664.512 355.222 661.565 372.868C661.346 373.557 661.388 374.302 661.683 374.962C663.51 377.106 660.643 386.421 658.999 391.622L657.517 400.819C657.517 400.819 659.974 409.361 656.242 408.734C652.51 408.106 658.067 417.217 654.508 419.5L645.274 476.821L683.799 540.316L669.53 561.005L612.456 487.523L611.743 421.174L603.182 474.681L602.468 558.865L576.51 556.106L567 474.488L576.072 361.615L590.34 312.675L653.835 318.441Z" fill="#2F2E41"/>
<path d="M493.074 298.845C494.42 297.342 496.299 296.424 498.311 296.286C500.324 296.148 502.311 296.8 503.85 298.105C504.158 298.375 504.444 298.67 504.704 298.987L530.143 289.889L539.302 301.172L503.106 309.869C501.707 310.845 500.024 311.33 498.321 311.249C496.617 311.168 494.988 310.526 493.688 309.422C492.954 308.786 492.353 308.013 491.918 307.145C491.483 306.277 491.224 305.332 491.154 304.364C491.085 303.396 491.206 302.424 491.513 301.503C491.819 300.582 492.303 299.73 492.939 298.997C492.983 298.945 493.028 298.895 493.074 298.845Z" fill="#FFB6B6"/>
<path d="M636 171.488L615 172.488L604.958 189.837L590.689 194.117L578.561 224.081L586 317.488C586 317.488 587.491 323.138 584.746 322.313C582 321.488 583.119 328.569 583.119 328.569L573 367.488L665 359.488L659.892 318.253C659.892 318.253 666.994 318.482 662 313.488C657.006 308.494 654.577 310.085 659.375 304.181C664.172 298.277 664.885 293.997 664.885 293.997L667.026 264.746L670.554 223.581C671.114 217.049 670.042 210.48 667.433 204.465C664.825 198.451 660.762 193.178 655.611 189.123V189.123L636 171.488Z" fill="#009F70"/>
<path d="M685.563 375.391C686.691 373.718 687.122 371.671 686.763 369.686C686.405 367.701 685.287 365.934 683.645 364.761C683.308 364.527 682.952 364.323 682.581 364.148L685.181 337.256L672 331.136L672.42 368.359C671.816 369.954 671.757 371.705 672.252 373.337C672.748 374.969 673.769 376.391 675.157 377.382C675.953 377.938 676.85 378.332 677.798 378.541C678.746 378.75 679.725 378.771 680.681 378.602C681.637 378.432 682.55 378.076 683.368 377.554C684.186 377.032 684.893 376.354 685.449 375.559C685.488 375.503 685.526 375.447 685.563 375.391Z" fill="#FFB6B6"/>
<path d="M665.673 200.787C665.673 200.787 695.914 272.825 695 300.488L685 351.488L671 350.488L672 304.488C677.108 299.266 655.729 269.769 648.682 249.01L665.673 200.787Z" fill="#009F70"/>
<path d="M592.116 193.404C592.116 193.404 554.574 261.763 540.036 281.868L529 290.488V304.488L554.661 305.055C554.661 305.055 592.83 273.307 591.403 257.612C589.976 241.917 592.116 193.404 592.116 193.404Z" fill="#009F70"/>
<path d="M625.11 166.671C639.819 166.671 651.742 154.748 651.742 140.039C651.742 125.331 639.819 113.408 625.11 113.408C610.402 113.408 598.479 125.331 598.479 140.039C598.479 154.748 610.402 166.671 625.11 166.671Z" fill="#FFB6B6"/>
<path d="M635.401 164.488C627.758 164.237 627.064 162.219 619.422 161.968C616.989 161.888 614.117 161.555 612.941 159.423C612.103 157.905 612.488 155.993 613.226 154.424C614.098 152.926 614.884 151.38 615.58 149.792C615.999 148.548 616.109 147.22 615.9 145.923C615.691 144.626 615.17 143.4 614.381 142.35C613.592 141.3 612.559 140.458 611.371 139.896C610.184 139.335 608.878 139.071 607.565 139.128C605.24 139.229 603.055 140.322 600.736 140.522C597.556 140.796 590.522 130.294 591.987 127.458C593.412 124.696 596.281 122.613 596.732 119.538C597.026 117.527 596.196 115.529 596.083 113.5C595.915 110.491 603.542 117.275 602.145 114.605C598.719 108.054 631.008 99.9335 636.324 108.139C638.311 111.205 641.852 110.996 645.008 112.838C647.076 114.045 652.299 118.209 653.487 120.805C654.578 123.453 655.093 126.303 654.999 129.166C655.047 142.48 653.019 154.727 642.279 162.597" fill="#2F2E41"/>
</svg>
